<svg width="340" height="103" viewBox="0 0 340 103" fill="none" xmlns="http://www.w3.org/2000/svg">
<g clip-path="url(#clip0_14_1786)">
<path fill-rule="evenodd" clip-rule="evenodd" d="M3.48615 11.28C3.48615 7.41401 6.62015 4.28 10.4861 4.28H20.9019C20.9019 4.28 112.109 0 205.142 0C298.176 0 311.598 4.28 311.598 4.28H327.514C331.38 4.28 334.514 7.41401 334.514 11.28V95.72C334.514 99.586 331.38 102.72 327.514 102.72H315.265H20.9019H10.4861C6.62015 102.72 3.48615 99.586 3.48615 95.72V51.36V11.28Z" fill="#B98766"/>
<g filter="url(#filter0_i_14_1786)">
<path fill-rule="evenodd" clip-rule="evenodd" d="M2.74544 6.01328C3.15126 2.5525 6.09554 0 9.58004 0L330.384 0C333.884 0 336.837 2.57344 337.234 6.05094C338.263 15.0828 340 32.8615 340 49.9333C340 66.841 338.296 83.7485 337.263 92.4393C336.853 95.8941 333.912 98.44 330.433 98.44H9.58003C6.09554 98.44 3.15126 95.8875 2.74544 92.4267C1.71402 83.6309 0 66.4254 0 49.22C0 32.0146 1.71402 14.8092 2.74544 6.01328Z" fill="url(#paint0_linear_14_1786)"/>
</g>
<path d="M55.0958 51.8184L55.2462 51.7637C55.3488 51.7295 55.4718 51.6611 55.6085 51.5518C55.7452 51.4424 55.8888 51.3193 56.0323 51.1689C56.1827 51.0254 56.3058 50.8271 56.4083 50.5742C56.5109 50.3145 56.5587 50.0342 56.5587 49.7266C56.5587 48.9883 56.2374 48.3457 55.5812 47.8057C54.9249 47.2656 54.0636 46.999 52.9835 46.999C52.5597 46.999 52.1427 47.0469 51.7325 47.1562C51.3292 47.2656 51.0011 47.3818 50.755 47.5049C50.5089 47.6279 50.2697 47.7783 50.0509 47.9561C49.8322 48.127 49.6954 48.2432 49.6271 48.3115C49.5587 48.3799 49.5109 48.4277 49.4835 48.4688L50.7482 49.7949L51.0011 49.5557C51.1583 49.4053 51.4044 49.2617 51.7394 49.1113C52.0812 48.9609 52.423 48.8857 52.7784 48.8857C53.2706 48.8857 53.6534 48.9814 53.92 49.1865C54.1866 49.3848 54.3165 49.6377 54.3165 49.9385C54.3165 50.2393 54.1935 50.4922 53.9406 50.6904C53.6876 50.8818 53.3253 50.9844 52.8468 50.9844H51.6573V52.8096H52.9152C53.4962 52.8096 53.9337 52.9258 54.2277 53.165C54.5216 53.3975 54.6652 53.6982 54.6652 54.0674C54.6652 54.4229 54.5079 54.7168 54.1935 54.9629C53.879 55.2021 53.4279 55.3252 52.8468 55.3252C52.5597 55.3252 52.2726 55.2842 51.9991 55.209C51.7257 55.1338 51.5001 55.0518 51.3224 54.9629C51.1447 54.8672 50.9806 54.7646 50.8165 54.6416C50.6593 54.5186 50.5568 54.4297 50.5089 54.3887L50.3995 54.2793L49.1349 55.5371L49.2921 55.7217C49.3947 55.8311 49.5587 55.9678 49.7775 56.1318C49.9962 56.2959 50.2491 56.46 50.5363 56.624C50.8234 56.7881 51.1925 56.9248 51.63 57.041C52.0675 57.1572 52.5187 57.2188 52.9835 57.2188C54.2003 57.2188 55.1642 56.9316 55.8615 56.3643C56.5587 55.79 56.9073 55.0996 56.9073 54.2793C56.9073 53.9307 56.8458 53.6094 56.7091 53.3086C56.5792 53.0078 56.4357 52.7754 56.2784 52.6045C56.1212 52.4404 55.9366 52.29 55.7247 52.1533C55.5197 52.0166 55.3693 51.9346 55.2872 51.9004C55.2052 51.8662 55.1368 51.8389 55.0958 51.8184ZM64.6271 52.8711H62.2413L63.4376 49.6514L64.6271 52.8711ZM65.3243 54.6895L66.1652 57H68.4073L64.5519 47.1973H62.3165L58.4611 57H60.7032L61.5441 54.6895H65.3243ZM72.9142 55.1133V52.7275H75.0128C75.382 52.7275 75.6964 52.8506 75.9562 53.0898C76.2091 53.3291 76.339 53.6094 76.339 53.9238C76.339 54.2383 76.2091 54.5186 75.9562 54.7578C75.6964 54.9971 75.382 55.1133 75.0128 55.1133H72.9142ZM75.0812 57C76.0382 57 76.838 56.6992 77.4806 56.0977C78.1163 55.4961 78.4376 54.7715 78.4376 53.9238C78.4376 53.0762 78.1163 52.3447 77.4806 51.7432C76.838 51.1416 76.0382 50.8408 75.0812 50.8408H72.9142V49.0908H77.6036V47.1973H70.8087V57H75.0812ZM81.3243 47.1973V57H83.4298V53.7803H85.4532C86.465 53.7803 87.299 53.4658 87.962 52.8369C88.6183 52.208 88.9532 51.4219 88.9532 50.4922C88.9532 49.5625 88.6183 48.7764 87.9552 48.1475C87.2921 47.5186 86.4581 47.2041 85.4532 47.2041L81.3243 47.1973ZM85.3849 49.0977C85.8019 49.0977 86.1505 49.2275 86.4308 49.501C86.7111 49.7744 86.8546 50.1025 86.8546 50.499C86.8546 50.8887 86.7111 51.2168 86.4308 51.4902C86.1505 51.7568 85.8019 51.8936 85.3849 51.8936H83.4298V49.0977H85.3849ZM93.4532 52.1055C93.4532 51.2031 93.754 50.4375 94.3693 49.8154C94.9777 49.1934 95.7228 48.8789 96.5978 48.8789C97.4728 48.8789 98.2179 49.1934 98.8263 49.8154C99.4415 50.4375 99.7423 51.2031 99.7423 52.1055C99.7423 53.0078 99.4415 53.7734 98.8263 54.3887C98.2179 55.0107 97.4728 55.3184 96.5978 55.3184C95.7228 55.3184 94.9777 55.0107 94.3693 54.3887C93.754 53.7734 93.4532 53.0078 93.4532 52.1055ZM91.2794 52.0986C91.2794 53.5068 91.7921 54.7168 92.8175 55.7148C93.8429 56.7129 95.1075 57.2119 96.5978 57.2119C98.088 57.2119 99.3527 56.7129 100.378 55.7148C101.403 54.7168 101.916 53.5068 101.916 52.0986C101.916 50.6904 101.403 49.4873 100.378 48.4893C99.3527 47.4912 98.088 46.9922 96.5978 46.9922C95.1075 46.9922 93.8429 47.4912 92.8175 48.4893C91.7921 49.4873 91.2794 50.6904 91.2794 52.0986ZM113.286 47.1973H111.188V51.1211H106.99V47.1973H104.885V57H106.99V53.0078H111.188V57H113.286V47.1973ZM125.559 57V47.1973H123.74L118.914 53.4316V47.1973H116.809V57H118.634L123.46 50.7725V57H125.559ZM129.074 47.1973V57H131.18V53.7803H133.203C134.215 53.7803 135.049 53.4658 135.712 52.8369C136.368 52.208 136.703 51.4219 136.703 50.4922C136.703 49.5625 136.368 48.7764 135.705 48.1475C135.042 47.5186 134.208 47.2041 133.203 47.2041L129.074 47.1973ZM133.135 49.0977C133.552 49.0977 133.901 49.2275 134.181 49.501C134.461 49.7744 134.605 50.1025 134.605 50.499C134.605 50.8887 134.461 51.2168 134.181 51.4902C133.901 51.7568 133.552 51.8936 133.135 51.8936H131.18V49.0977H133.135ZM141.203 52.1055C141.203 51.2031 141.504 50.4375 142.119 49.8154C142.728 49.1934 143.473 48.8789 144.348 48.8789C145.223 48.8789 145.968 49.1934 146.576 49.8154C147.192 50.4375 147.492 51.2031 147.492 52.1055C147.492 53.0078 147.192 53.7734 146.576 54.3887C145.968 55.0107 145.223 55.3184 144.348 55.3184C143.473 55.3184 142.728 55.0107 142.119 54.3887C141.504 53.7734 141.203 53.0078 141.203 52.1055ZM139.029 52.0986C139.029 53.5068 139.542 54.7168 140.568 55.7148C141.593 56.7129 142.858 57.2119 144.348 57.2119C145.838 57.2119 147.103 56.7129 148.128 55.7148C149.153 54.7168 149.666 53.5068 149.666 52.0986C149.666 50.6904 149.153 49.4873 148.128 48.4893C147.103 47.4912 145.838 46.9922 144.348 46.9922C142.858 46.9922 141.593 47.4912 140.568 48.4893C139.542 49.4873 139.029 50.6904 139.029 52.0986ZM157.078 57C158.049 57 158.842 56.7197 159.471 56.1523C160.093 55.5918 160.407 54.915 160.407 54.1289C160.407 53.8145 160.346 53.5205 160.23 53.2471C160.113 52.9736 159.984 52.7549 159.847 52.5908C159.703 52.4336 159.539 52.29 159.355 52.1533C159.163 52.0166 159.033 51.9346 158.965 51.9004C158.897 51.8662 158.835 51.8389 158.794 51.8184L158.91 51.75C158.979 51.709 159.074 51.627 159.184 51.5176C159.293 51.4082 159.409 51.2715 159.526 51.1143C159.635 50.9639 159.731 50.7656 159.806 50.5332C159.874 50.3008 159.915 50.0479 159.915 49.7881C159.915 49.1045 159.621 48.4961 159.04 47.9766C158.459 47.457 157.728 47.1973 156.839 47.1973H152.635V57H157.078ZM154.74 55.25V52.7275H156.976C157.359 52.7275 157.673 52.8506 157.926 53.0967C158.179 53.3428 158.309 53.6367 158.309 53.9922C158.309 54.3477 158.179 54.6484 157.926 54.8877C157.673 55.1338 157.359 55.25 156.976 55.25H154.74ZM156.695 48.9473C157.037 48.9473 157.311 49.043 157.516 49.2344C157.714 49.4258 157.817 49.6855 157.817 50C157.817 50.3213 157.714 50.5742 157.516 50.7656C157.311 50.957 157.037 51.0527 156.695 51.0527H154.74V48.9473H156.695ZM168.127 52.8711H165.741L166.938 49.6514L168.127 52.8711ZM168.824 54.6895L169.665 57H171.907L168.052 47.1973H165.817L161.961 57H164.203L165.044 54.6895H168.824ZM172.484 47.1973V49.0908H175.286V57H177.385V49.0908H180.181V47.1973H172.484ZM186.848 57C187.853 57 188.687 56.6855 189.35 56.0566C190.013 55.4277 190.348 54.6484 190.348 53.7119C190.348 52.7822 190.013 51.9961 189.35 51.3672C188.687 50.7383 187.853 50.417 186.848 50.417H184.824V47.1973H182.719V57H186.848ZM184.824 55.1133V52.3105H186.779C187.196 52.3105 187.545 52.4473 187.825 52.7207C188.106 52.9941 188.249 53.3223 188.249 53.7119C188.249 54.1084 188.106 54.4365 187.825 54.71C187.545 54.9834 187.196 55.1133 186.779 55.1133H184.824ZM201.549 57C202.52 57 203.313 56.7197 203.942 56.1523C204.564 55.5918 204.878 54.915 204.878 54.1289C204.878 53.8145 204.817 53.5205 204.7 53.2471C204.584 52.9736 204.454 52.7549 204.318 52.5908C204.174 52.4336 204.01 52.29 203.825 52.1533C203.634 52.0166 203.504 51.9346 203.436 51.9004C203.367 51.8662 203.306 51.8389 203.265 51.8184L203.381 51.75C203.449 51.709 203.545 51.627 203.654 51.5176C203.764 51.4082 203.88 51.2715 203.996 51.1143C204.106 50.9639 204.201 50.7656 204.276 50.5332C204.345 50.3008 204.386 50.0479 204.386 49.7881C204.386 49.1045 204.092 48.4961 203.511 47.9766C202.93 47.457 202.198 47.1973 201.31 47.1973H197.106V57H201.549ZM199.211 55.25V52.7275H201.446C201.829 52.7275 202.144 52.8506 202.397 53.0967C202.65 53.3428 202.779 53.6367 202.779 53.9922C202.779 54.3477 202.65 54.6484 202.397 54.8877C202.144 55.1338 201.829 55.25 201.446 55.25H199.211ZM201.166 48.9473C201.508 48.9473 201.781 49.043 201.986 49.2344C202.185 49.4258 202.287 49.6855 202.287 50C202.287 50.3213 202.185 50.5742 201.986 50.7656C201.781 50.957 201.508 51.0527 201.166 51.0527H199.211V48.9473H201.166ZM207.84 47.1973V57H209.945V53.7803H211.969C212.981 53.7803 213.815 53.4658 214.478 52.8369C215.134 52.208 215.469 51.4219 215.469 50.4922C215.469 49.5625 215.134 48.7764 214.471 48.1475C213.808 47.5186 212.974 47.2041 211.969 47.2041L207.84 47.1973ZM211.901 49.0977C212.318 49.0977 212.666 49.2275 212.946 49.501C213.227 49.7744 213.37 50.1025 213.37 50.499C213.37 50.8887 213.227 51.2168 212.946 51.4902C212.666 51.7568 212.318 51.8936 211.901 51.8936H209.945V49.0977H211.901ZM220.461 55.1133V52.9395H224.446V51.0527H220.461V49.0908H225.568V47.1973H218.356V57H225.711V55.1133H220.461ZM233.916 51.4697L230.56 47.1973H228.666V57H230.772V50.4922L233.916 54.4775L237.068 50.4648V57H239.166V47.1973H237.307L233.916 51.4697ZM249.962 47.1973H245.621C244.651 47.1973 243.844 47.5117 243.215 48.127C242.579 48.749 242.265 49.5146 242.265 50.4238C242.265 50.8135 242.326 51.1826 242.449 51.5312C242.572 51.873 242.716 52.1465 242.873 52.3447C243.024 52.5361 243.201 52.7207 243.406 52.8916C243.605 53.0557 243.741 53.165 243.823 53.2061C243.905 53.2471 243.967 53.2744 244.015 53.2949L241.916 57.0068H244.151L246.045 53.5752H247.863V57.0068H249.962V47.1973ZM244.363 50.4238C244.363 50.041 244.486 49.7197 244.739 49.4736C244.992 49.2207 245.314 49.0977 245.696 49.0977H247.863V51.6885H245.696C245.314 51.6885 244.992 51.5654 244.739 51.3193C244.486 51.0732 244.363 50.7793 244.363 50.4238Z" fill="white"/>
<path fill-rule="evenodd" clip-rule="evenodd" d="M285.041 46.6769H285.071C286.013 46.6769 286.784 47.5034 286.787 48.5309L286.787 48.7761C286.791 50.5526 286.793 51.2281 286.79 52.9339C286.79 53.2327 286.791 53.5627 286.791 53.9354C286.792 54.3937 286.793 54.9164 286.793 55.5245C286.791 57.9889 284.974 59.996 282.734 59.996V60H278.315C276.836 60 275.472 59.1129 274.755 57.691L270.834 49.91C270.756 49.7553 270.793 49.5656 270.923 49.4543L271.326 49.1093C271.792 48.6626 272.415 48.4349 273.049 48.4798C273.697 48.5287 274.295 48.8531 274.701 49.3755L275.165 49.9566L275.173 41.5015C275.173 40.4724 275.946 39.6352 276.89 39.6352C277.834 39.6352 278.611 40.4729 278.611 41.5028V45.7643C278.891 45.541 279.236 45.4222 279.589 45.4278H279.621C280.281 45.4278 280.855 45.8333 281.141 46.4311C281.452 46.0966 281.881 45.9063 282.33 45.9031C283.062 45.9031 283.687 46.4085 283.934 47.1116C284.238 46.8296 284.633 46.6745 285.041 46.6769ZM286.067 53.6863C286.068 53.4123 286.068 53.1623 286.068 52.9314L286.068 52.9043C286.07 51.1439 286.071 50.4837 286.067 48.5318C286.066 47.912 285.619 47.417 285.071 47.417H285.041C284.492 47.417 284.033 47.9037 284.033 48.5255V49.4225C284.033 49.6269 283.872 49.7926 283.675 49.7926C283.477 49.7926 283.316 49.6269 283.316 49.4225V47.766C283.316 47.144 282.881 46.6384 282.332 46.6384C281.78 46.6384 281.344 47.1442 281.344 47.766V49.5219C281.344 49.7263 281.184 49.892 280.986 49.892C280.788 49.892 280.627 49.7263 280.627 49.5219V47.2839C280.627 46.6622 280.17 46.168 279.621 46.168H279.589C279.055 46.168 278.611 46.6364 278.611 47.2358V49.7553C278.611 49.9597 278.45 50.1254 278.252 50.1254C278.055 50.1254 277.894 49.9597 277.894 49.7553V47.3095C277.894 47.3053 277.894 47.301 277.894 47.2966C277.893 47.2923 277.893 47.2879 277.893 47.2835C277.893 47.2733 277.893 47.2632 277.894 47.2531C277.894 47.2432 277.894 47.2332 277.894 47.2233V41.5028C277.894 40.8811 277.439 40.3752 276.89 40.3752C276.341 40.3752 275.886 40.8806 275.886 41.5019L275.879 50.9896C275.879 51.1457 275.784 51.2852 275.641 51.3378C275.499 51.3904 275.34 51.345 275.244 51.2241L274.146 49.8457C273.865 49.4812 273.449 49.2539 272.999 49.2183C272.558 49.1885 272.126 49.3489 271.804 49.6614C271.802 49.663 271.801 49.6646 271.799 49.6663C271.796 49.669 271.793 49.6717 271.79 49.6742L271.603 49.8352L275.391 57.3491C275.984 58.5251 277.104 59.2597 278.315 59.2597H282.713C284.559 59.2597 286.063 57.5824 286.065 55.5254C286.066 54.8049 286.067 54.2029 286.067 53.6863Z" fill="white"/>
<path d="M274.034 41.6625C274.232 41.6625 274.393 41.4968 274.393 41.2924C274.398 39.8802 275.509 38.7387 276.877 38.7387C278.245 38.7387 279.355 39.8802 279.361 41.2924C279.361 41.4968 279.521 41.6625 279.719 41.6625C279.917 41.6625 280.078 41.4968 280.078 41.2924C280.071 39.472 278.64 38 276.877 38C275.113 38 273.682 39.472 273.676 41.2924C273.676 41.4968 273.836 41.6625 274.034 41.6625Z" fill="white"/>
</g>
<defs>
<filter id="filter0_i_14_1786" x="0" y="0" width="340" height="98.44" filterUnits="userSpaceOnUse" color-interpolation-filters="sRGB">
<feFlood flood-opacity="0" result="BackgroundImageFix"/>
<feBlend mode="normal" in="SourceGraphic" in2="BackgroundImageFix" result="shape"/>
<feColorMatrix in="SourceAlpha" type="matrix" values="0 0 0 0 0 0 0 0 0 0 0 0 0 0 0 0 0 0 127 0" result="hardAlpha"/>
<feOffset/>
<feGaussianBlur stdDeviation="6"/>
<feComposite in2="hardAlpha" operator="arithmetic" k2="-1" k3="1"/>
<feColorMatrix type="matrix" values="0 0 0 0 0.898039 0 0 0 0 0.717647 0 0 0 0 0.603922 0 0 0 1 0"/>
<feBlend mode="normal" in2="shape" result="effect1_innerShadow_14_1786"/>
</filter>
<linearGradient id="paint0_linear_14_1786" x1="365.09" y1="40.8838" x2="330.464" y2="-75.5803" gradientUnits="userSpaceOnUse">
<stop stop-color="#C88C61"/>
<stop offset="1" stop-color="#EBBE9C"/>
</linearGradient>
<clipPath id="clip0_14_1786">
<rect width="340" height="102.72" fill="white"/>
</clipPath>
</defs>
</svg>
