<svg width="334" height="99" viewBox="0 0 334 99" fill="none" xmlns="http://www.w3.org/2000/svg">
<g filter="url(#filter0_i_0_174)">
<path fill-rule="evenodd" clip-rule="evenodd" d="M2.69505 6.03019C3.0944 2.56205 6.04224 0 9.53329 0L324.431 0C327.938 0 330.894 2.58244 331.284 6.06699C332.295 15.1039 334 32.8716 334 49.9333C334 66.8298 332.328 83.7262 331.314 92.4221C330.91 95.8843 327.965 98.44 324.479 98.44H9.53328C6.04223 98.44 3.0944 95.878 2.69505 92.4098C1.68162 83.6088 0 66.4144 0 49.22C0 32.0256 1.68162 14.8312 2.69505 6.03019Z" fill="url(#paint0_linear_0_174)"/>
</g>
<defs>
<filter id="filter0_i_0_174" x="0" y="0" width="334" height="98.4399" filterUnits="userSpaceOnUse" color-interpolation-filters="sRGB">
<feFlood flood-opacity="0" result="BackgroundImageFix"/>
<feBlend mode="normal" in="SourceGraphic" in2="BackgroundImageFix" result="shape"/>
<feColorMatrix in="SourceAlpha" type="matrix" values="0 0 0 0 0 0 0 0 0 0 0 0 0 0 0 0 0 0 127 0" result="hardAlpha"/>
<feOffset/>
<feGaussianBlur stdDeviation="6"/>
<feComposite in2="hardAlpha" operator="arithmetic" k2="-1" k3="1"/>
<feColorMatrix type="matrix" values="0 0 0 0 0.898039 0 0 0 0 0.717647 0 0 0 0 0.603922 0 0 0 1 0"/>
<feBlend mode="normal" in2="shape" result="effect1_innerShadow_0_174"/>
</filter>
<linearGradient id="paint0_linear_0_174" x1="358.647" y1="40.8838" x2="323.503" y2="-75.2384" gradientUnits="userSpaceOnUse">
<stop stop-color="#C88C61"/>
<stop offset="1" stop-color="#EBBE9C"/>
</linearGradient>
</defs>
</svg>
