<svg width="31" height="29" viewBox="0 0 31 29" fill="none" xmlns="http://www.w3.org/2000/svg">
<g filter="url(#filter0_d_14_1854)">
<path d="M23.3592 16.1086L23.0976 16.3544C21.7617 17.6094 19.224 17.8982 17.6074 16.9793L17.4974 16.9168L17.3793 16.869C17.2344 16.8103 16.8712 16.6253 16.3221 16.2793C15.3469 15.6648 14.2517 14.8198 13.0691 13.7088C11.8865 12.5979 10.9871 11.569 10.333 10.6528C9.96466 10.137 9.76769 9.79577 9.70525 9.65964L9.64869 9.53643L9.57291 9.42271C8.59002 7.94755 8.90691 5.55228 10.2546 4.28617L10.5293 4.02812C10.8339 3.74197 11.1981 3.76144 11.4629 4.07601L12.9584 5.85216C13.3272 6.29011 13.2794 7.05256 12.8539 7.45239C11.9486 8.31281 11.9531 9.69891 12.8641 10.5548L16.4266 13.9015C17.3399 14.7595 18.8254 14.76 19.7403 13.9005L19.8135 13.8317C20.2289 13.4415 21.0075 13.4054 21.4633 13.7562L23.3072 15.1754C23.6514 15.4403 23.6716 15.8152 23.3592 16.1086Z" fill="url(#paint0_linear_14_1854)"/>
</g>
<defs>
<filter id="filter0_d_14_1854" x="0" y="-3.17391" width="32.5802" height="31.6917" filterUnits="userSpaceOnUse" color-interpolation-filters="sRGB">
<feFlood flood-opacity="0" result="BackgroundImageFix"/>
<feColorMatrix in="SourceAlpha" type="matrix" values="0 0 0 0 0 0 0 0 0 0 0 0 0 0 0 0 0 0 127 0" result="hardAlpha"/>
<feOffset dy="2"/>
<feGaussianBlur stdDeviation="4.5"/>
<feColorMatrix type="matrix" values="0 0 0 0 1 0 0 0 0 0.549398 0 0 0 0 0.230869 0 0 0 1 0"/>
<feBlend mode="normal" in2="BackgroundImageFix" result="effect1_dropShadow_14_1854"/>
<feBlend mode="normal" in="SourceGraphic" in2="effect1_dropShadow_14_1854" result="shape"/>
</filter>
<linearGradient id="paint0_linear_14_1854" x1="1.70992" y1="10.6719" x2="15.3746" y2="25.2233" gradientUnits="userSpaceOnUse">
<stop stop-color="#E9C6A4"/>
<stop offset="1" stop-color="#CE946B"/>
</linearGradient>
</defs>
</svg>
