<svg width="34" height="34" viewBox="0 0 34 34" fill="none" xmlns="http://www.w3.org/2000/svg">
<path d="M17.0001 0C20.6404 0 23.6301 2.77893 23.9669 6.33105C26.2471 7.12202 27.9031 9.24877 27.9962 11.7754L28.0001 12V14.502C32.728 14.0082 35.1585 18.5465 33.4581 21.9473C32.7993 23.2649 31.3963 24.0052 29.9884 24.1465C29.8835 25.9879 28.9489 27.6055 27.5519 28.6338C27.8505 29.1436 28.0001 29.7742 28.0001 30.5L28.004 30.5947C28.0445 31.0249 28.3767 31.3138 29.2423 31.5303C29.778 31.6642 30.1036 32.2065 29.9698 32.7422C29.8359 33.2779 29.2936 33.6035 28.7579 33.4697C27.019 33.035 26.0001 32.0168 26.0001 30.5L25.9962 30.3311C25.9779 29.9444 25.8925 29.6986 25.7472 29.541C25.4411 29.634 25.1246 29.7019 24.7999 29.7451V29.7998H10.7999V29.7949C10.0194 29.7693 9.27723 29.595 8.59972 29.2988C8.58301 29.3113 8.56658 29.3244 8.54893 29.3359L8.44737 29.3945C8.18138 29.5275 8.02944 29.7951 8.00401 30.3311L8.00011 30.5C8.00011 32.0168 6.98117 33.035 5.24229 33.4697C4.70658 33.6035 4.16431 33.2779 4.03038 32.7422C3.89659 32.2065 4.2222 31.6642 4.75792 31.5303C5.62351 31.3138 5.95568 31.0249 5.9962 30.5947L6.00011 30.5C6.00011 29.5074 6.27769 28.6916 6.838 28.1221C5.78341 27.1063 5.10153 25.7078 5.01183 24.1504C3.33146 24.3077 1.4117 23.5595 0.605576 21.9473C-1.08716 18.5618 1.31394 14.0503 6.00011 14.4971V12L6.00401 11.7754C6.09712 9.24911 7.75265 7.12227 10.0323 6.33105C10.3691 2.77889 13.3598 1.35894e-05 17.0001 0ZM31.6691 21.0527C32.7194 18.9521 31.2151 16.1562 28.1739 16.4941C25.6614 16.7734 24.3467 18.2194 24.0587 21.0996C24.05 21.1866 24.0291 21.2694 24.0001 21.3477V26H10.0001V21.0605C9.70412 18.2063 8.39102 16.7721 5.88976 16.4941C2.84861 16.1562 1.34431 18.9521 2.39464 21.0527C2.98244 22.2283 5.09165 22.4944 5.79308 21.793C6.44358 21.1425 6.21487 20.0923 5.14464 20.0059L5.00011 20C4.44783 20 4.00011 19.5523 4.00011 19C4.00011 18.4477 4.44783 18 5.00011 18C8.18192 18 9.02833 21.3858 7.20714 23.207C7.14177 23.2724 7.07185 23.3329 7.00011 23.3916V23.7998L7.00499 24C7.10594 26.0501 8.75075 27.6942 10.8009 27.7949L11.0001 27.7998H24.0001L24.1993 27.7949C26.2495 27.6942 27.8943 26.0501 27.9952 24L27.9972 23.917C27.5618 23.7565 27.1705 23.521 26.8566 23.207C25.0354 21.3858 25.8819 18.0001 29.0636 18C29.6159 18 30.0636 18.4477 30.0636 19C30.0636 19.5523 29.6159 20 29.0636 20L28.9191 20.0059C27.8489 20.0924 27.6202 21.1425 28.2706 21.793C28.972 22.4944 31.0812 22.2283 31.6691 21.0527ZM12.0001 24H22.0001V22H12.0001V24ZM17.0001 2C14.3114 2.00001 12.1186 4.12241 12.005 6.7832L12.0001 7V8L11.8009 8.00488C9.6845 8.10891 8.00011 9.8578 8.00011 12V14.9482C10.0914 15.741 11.4021 17.4575 11.8683 20H22.1954C22.6568 17.4834 23.9458 15.776 26.0001 14.9727V12C26.0001 9.8578 24.3157 8.10891 22.1993 8.00488L22.0001 8V7L21.9933 6.74316C21.8596 4.10111 19.6754 2 17.0001 2ZM17.0001 14C17.5524 14 18.0001 14.4477 18.0001 15C18.0001 15.5523 17.5524 16 17.0001 16C16.4478 16 16.0001 15.5523 16.0001 15C16.0001 14.4477 16.4478 14 17.0001 14ZM13.0001 10C13.5524 10 14.0001 10.4477 14.0001 11C14.0001 11.5523 13.5524 12 13.0001 12C12.4478 12 12.0001 11.5523 12.0001 11C12.0001 10.4477 12.4478 10 13.0001 10ZM21.0001 10C21.5524 10 22.0001 10.4477 22.0001 11C22.0001 11.5523 21.5524 12 21.0001 12C20.4478 12 20.0001 11.5523 20.0001 11C20.0001 10.4477 20.4478 10 21.0001 10ZM17.0001 6C17.5524 6 18.0001 6.44772 18.0001 7C18.0001 7.55228 17.5524 8 17.0001 8C16.4478 7.99999 16.0001 7.55228 16.0001 7C16.0001 6.44772 16.4478 6.00001 17.0001 6Z" fill="url(#paint0_linear_14_1871)"/>
<defs>
<linearGradient id="paint0_linear_14_1871" x1="-8.77909" y1="9.12888" x2="9.34979" y2="42.8261" gradientUnits="userSpaceOnUse">
<stop stop-color="#AC6C44"/>
<stop offset="1" stop-color="#301103"/>
</linearGradient>
</defs>
</svg>
