<svg width="37" height="34" viewBox="0 0 37 34" fill="none" xmlns="http://www.w3.org/2000/svg">
<path d="M1.50006 21.25C2.19042 21.25 2.75006 21.8096 2.75006 22.5V27L2.75494 27.1992C2.85849 29.1777 4.49582 30.75 6.50006 30.75H10.0001L10.128 30.7568C10.7582 30.8209 11.2501 31.3528 11.2501 32C11.2501 32.6904 10.6904 33.25 10.0001 33.25H6.50006L6.27057 33.2461C2.9251 33.1253 0.250061 30.375 0.250061 27V22.5L0.256897 22.3721C0.320984 21.7418 0.852908 21.25 1.50006 21.25ZM35.0001 21.25C35.6472 21.25 36.1791 21.7418 36.2432 22.3721L36.2501 22.5V27C36.2501 30.375 33.575 33.1253 30.2296 33.2461L30.0001 33.25H26.5001C25.8097 33.25 25.2501 32.6904 25.2501 32C25.2501 31.3528 25.7419 30.8209 26.3721 30.7568L26.5001 30.75H30.0001C32.0043 30.75 33.6416 29.1777 33.7452 27.1992L33.7501 27V22.5C33.7501 21.8096 34.3097 21.25 35.0001 21.25ZM11.2667 10.251C11.8311 9.83182 12.6264 9.95103 13.044 10.5176C13.4615 11.0841 13.3427 11.8834 12.7784 12.3027C12.3075 12.6527 11.5212 13.3383 11.543 13.998C11.5616 14.5519 12.1418 15.1694 12.709 15.5352C13.24 15.8775 14.9772 17.148 15.043 19.1348C15.089 20.5266 14.3269 21.8161 12.7784 22.9668C12.5511 23.1357 12.2863 23.2178 12.0235 23.2178C11.6345 23.2178 11.2503 23.0385 11.001 22.7002C10.5834 22.1336 10.7024 21.3344 11.2667 20.915C11.7376 20.5651 12.5238 19.8794 12.502 19.2197C12.4836 18.6657 11.9033 18.0485 11.336 17.6826C10.8051 17.3403 9.06757 16.069 9.00201 14.082C8.9561 12.6903 9.7183 11.4015 11.2667 10.251ZM17.7442 10.25C18.3086 9.83121 19.104 9.95117 19.5215 10.5176C19.939 11.0841 19.8202 11.8834 19.2559 12.3027C18.785 12.6527 17.9987 13.3383 18.0206 13.998C18.0392 14.552 18.6193 15.1694 19.1866 15.5352C19.7175 15.8775 21.4549 17.1481 21.5206 19.1348C21.5666 20.5266 20.8044 21.8161 19.2559 22.9668C19.0286 23.1356 18.7638 23.2168 18.501 23.2168C18.112 23.2168 17.7279 23.0384 17.4786 22.7002C17.061 22.1336 17.1799 21.3344 17.7442 20.915C18.2151 20.5651 19.0013 19.8795 18.9796 19.2197C18.9612 18.6658 18.3809 18.0485 17.8135 17.6826C17.2828 17.3403 15.5451 16.069 15.4796 14.082C15.4336 12.6902 16.1958 11.4005 17.7442 10.25ZM24.2217 10.25C24.7861 9.83098 25.5816 9.95098 25.9991 10.5176C26.4166 11.0841 26.2977 11.8834 25.7335 12.3027C25.2625 12.6527 24.4763 13.3384 24.4981 13.998C24.5168 14.552 25.0969 15.1694 25.6641 15.5352C26.195 15.8774 27.9324 17.148 27.9981 19.1348C28.0441 20.5266 27.2819 21.8161 25.7335 22.9668C25.5061 23.1356 25.2413 23.2168 24.9786 23.2168C24.5896 23.2168 24.2054 23.0384 23.9561 22.7002C23.5385 22.1336 23.6574 21.3344 24.2217 20.915C24.6926 20.5651 25.4789 19.8795 25.4571 19.2197C25.4387 18.6658 24.8584 18.0485 24.2911 17.6826C23.7602 17.3403 22.0226 16.069 21.9571 14.082C21.9112 12.6902 22.6733 11.4005 24.2217 10.25ZM10.0001 0.25C10.6904 0.25 11.2501 0.809644 11.2501 1.5C11.2501 2.14715 10.7582 2.67908 10.128 2.74316L10.0001 2.75H6.50006C4.49582 2.75 2.85849 4.32232 2.75494 6.30078L2.75006 6.5V11C2.75006 11.6904 2.19042 12.25 1.50006 12.25C0.852908 12.25 0.320984 11.7582 0.256897 11.1279L0.250061 11V6.5C0.250061 3.12505 2.9251 0.374655 6.27057 0.253906L6.50006 0.25H10.0001ZM30.2296 0.253906C33.575 0.374655 36.2501 3.12505 36.2501 6.5V11L36.2432 11.1279C36.1791 11.7582 35.6472 12.25 35.0001 12.25C34.3097 12.25 33.7501 11.6904 33.7501 11V6.5L33.7452 6.30078C33.6416 4.32232 32.0043 2.75 30.0001 2.75H26.5001L26.3721 2.74316C25.7419 2.67908 25.2501 2.14715 25.2501 1.5C25.2501 0.809644 25.8097 0.25 26.5001 0.25H30.0001L30.2296 0.253906Z" fill="url(#paint0_linear_14_1899)"/>
<defs>
<linearGradient id="paint0_linear_14_1899" x1="-9.13006" y1="9.24269" x2="7.98248" y2="43.4956" gradientUnits="userSpaceOnUse">
<stop stop-color="#AC6C44"/>
<stop offset="1" stop-color="#301103"/>
</linearGradient>
</defs>
</svg>
