<svg width="17" height="22" viewBox="0 0 17 22" fill="none" xmlns="http://www.w3.org/2000/svg">
<path fill-rule="evenodd" clip-rule="evenodd" d="M15.0412 8.67687H15.0712C16.0132 8.67687 16.7843 9.50341 16.7866 10.5309L16.7871 10.7761C16.7911 12.5526 16.7926 13.2281 16.7904 14.9339C16.7901 15.2327 16.7907 15.5627 16.7915 15.9354C16.7923 16.3937 16.7934 16.9164 16.7929 17.5245C16.7906 19.9889 14.974 21.996 12.7335 21.996V22H8.31461C6.8357 22 5.47161 21.1129 4.75464 19.691L0.833561 11.91C0.755668 11.7553 0.792777 11.5656 0.922832 11.4543L1.32612 11.1093C1.79173 10.6626 2.4154 10.4349 3.0494 10.4798C3.6967 10.5287 4.29499 10.8531 4.70143 11.3755L5.16494 11.9566L5.17281 3.5015C5.17334 2.47239 5.94597 1.63519 6.88961 1.63519C7.8343 1.63519 8.61096 2.47294 8.61096 3.50277V7.76431C8.89067 7.54096 9.23568 7.42224 9.58926 7.42784H9.62112C10.2808 7.42784 10.8546 7.83334 11.1406 8.43111C11.4517 8.09663 11.8805 7.90635 12.3295 7.90309C13.0621 7.90309 13.6875 8.40852 13.9336 9.11164C14.2376 8.82956 14.6325 8.67452 15.0412 8.67687ZM16.0674 15.6863C16.0677 15.4123 16.068 15.1623 16.0682 14.9314L16.0682 14.9043C16.0705 13.1439 16.0713 12.4837 16.067 10.5318C16.0656 9.91198 15.6191 9.41703 15.0712 9.41703H15.0412C14.492 9.41703 14.033 9.90367 14.033 10.5255V11.4225C14.033 11.6269 13.8725 11.7926 13.6745 11.7926C13.4766 11.7926 13.316 11.6269 13.316 11.4225V9.76597C13.316 9.14399 12.8809 8.63838 12.3318 8.63838C11.7795 8.63838 11.3444 9.14417 11.3444 9.76597V11.5219C11.3444 11.7263 11.1839 11.892 10.9859 11.892C10.7879 11.892 10.6274 11.7263 10.6274 11.5219V9.28385C10.6274 8.66223 10.1704 8.16801 9.62111 8.16801H9.58926C9.05451 8.16801 8.61096 8.63639 8.61096 9.23579V11.7553C8.61096 11.9597 8.45045 12.1254 8.25247 12.1254C8.0545 12.1254 7.89399 11.9597 7.89399 11.7553V9.30951C7.89399 9.30529 7.89378 9.30098 7.89356 9.29664C7.89334 9.29226 7.89312 9.28785 7.89312 9.28349C7.89312 9.27333 7.89334 9.26321 7.89356 9.25313C7.89377 9.24315 7.89399 9.23321 7.89399 9.22332V3.50277C7.89399 2.88115 7.43889 2.37518 6.88996 2.37518C6.34103 2.37518 5.88593 2.88061 5.88558 3.50187L5.8791 12.9896C5.8791 13.1457 5.78388 13.2852 5.6414 13.3378C5.49891 13.3904 5.33963 13.345 5.2437 13.2241L4.14638 11.8457C3.86474 11.4812 3.44919 11.2539 2.99881 11.2183C2.55823 11.1885 2.12553 11.3489 1.80399 11.6614C1.80226 11.663 1.80054 11.6646 1.79881 11.6663C1.79596 11.669 1.79309 11.6717 1.79016 11.6742L1.60321 11.8352L5.39091 19.3491C5.98378 20.5251 7.10421 21.2597 8.31479 21.2597H12.7125C14.5594 21.2597 16.0635 19.5824 16.0654 17.5254C16.0661 16.8049 16.0668 16.2029 16.0674 15.6863Z" fill="white"/>
<path d="M4.03402 3.66251C4.23199 3.66251 4.3925 3.4968 4.3925 3.29243C4.39828 1.88023 5.50891 0.738718 6.87668 0.738718C8.24462 0.738718 9.35507 1.88023 9.36085 3.29243C9.36085 3.4968 9.52136 3.66251 9.71933 3.66251C9.9173 3.66251 10.0778 3.4968 10.0778 3.29243C10.0712 1.47202 8.64003 0 6.87668 0C5.11349 0 3.68219 1.47202 3.67554 3.29243C3.67554 3.4968 3.83605 3.66251 4.03402 3.66251Z" fill="white"/>
</svg>
